<?xml version="1.0" standalone="no"?><!DOCTYPE svg PUBLIC "-//W3C//DTD SVG 1.1//EN" "http://www.w3.org/Graphics/SVG/1.1/DTD/svg11.dtd"><svg t="1516895601553" class="icon" style="" viewBox="0 0 1024 1024" version="1.1" xmlns="http://www.w3.org/2000/svg" p-id="1957" xmlns:xlink="http://www.w3.org/1999/xlink" width="200" height="200"><defs><style type="text/css"></style></defs><path d="M935.254 760.747c0 158.72-72.746 158.72-423.254 158.72-350.506 0-423.254 0-423.254-158.72 0-171.946 191.786-515.84 423.254-515.84 231.466 0 423.254 343.894 423.254 515.84v0 0zM512 317.653c-99.2 0-178.56 79.36-178.56 178.56s79.36 178.56 178.56 178.56c99.2 0 178.56-79.36 178.56-178.56 0-99.2-79.36-178.56-178.56-178.56v0 0zM141.654 449.921c72.746-119.040 198.4-244.694 370.346-244.694s310.826 138.88 370.346 244.694c33.066 52.906 92.586 46.294 119.040 0 19.84-33.066 72.746-330.666-489.386-330.666-562.134 0-509.226 304.214-489.386 330.666 39.68 52.906 105.814 26.454 119.040 0v0 0z" p-id="1958" fill="#079aff"></path></svg>